<?xml version="1.0" encoding="utf-8"?>
<!-- Generator: Adobe Illustrator 16.0.0, SVG Export Plug-In . SVG Version: 6.00 Build 0)  -->
<!DOCTYPE svg PUBLIC "-//W3C//DTD SVG 1.1//EN" "http://www.w3.org/Graphics/SVG/1.1/DTD/svg11.dtd">
<svg version="1.1" id="Layer_1" xmlns="http://www.w3.org/2000/svg" xmlns:xlink="http://www.w3.org/1999/xlink" x="0px" y="0px"
	 width="1626.163px" height="1628.102px" viewBox="0 0 1626.163 1628.102" enable-background="new 0 0 1626.163 1628.102"
	 xml:space="preserve">
<polygon fill="#E5BA51" points="1165.244,1625.808 1619.146,954.561 1618.801,601.721 611.941,8.008 1,410.137 1,1359.785 "/>
<polygon fill="#FFFFFF" points="1203.213,1520.423 1594.494,946.207 1594.16,606.593 617.574,35.136 25.003,422.192 
	56.005,1236.255 "/>
<path fill="none" stroke="#F8BE16" stroke-width="17" stroke-miterlimit="10" d="M588.199,672.675
	c0-27.205-22.016-49.221-49.221-49.221"/>
<rect x="1026.873" y="991.267" fill="#CE192A" width="89.672" height="177.875"/>
<path fill="none" stroke="#F8BE16" stroke-width="17" stroke-miterlimit="10" d="M638.926,624.244
	c-27.193-0.845-49.881,20.476-50.727,47.666"/>
<path fill="none" stroke="#F8BE16" stroke-width="17" stroke-miterlimit="10" d="M538.979,623.75
	c-27.192-0.845-49.881,20.476-50.727,47.667"/>
<line fill="none" stroke="#F8BE16" stroke-width="17" stroke-miterlimit="10" x1="488.252" y1="671.417" x2="488.252" y2="719.392"/>
<line fill="none" stroke="#F8BE16" stroke-width="17" stroke-miterlimit="10" x1="588.199" y1="671.91" x2="588.199" y2="719.392"/>
<path fill="none" stroke="#F8BE16" stroke-width="17" stroke-miterlimit="10" d="M684.807,673.441
	c0-27.208-22.014-49.223-49.222-49.223"/>
<path fill="none" stroke="#355BA9" stroke-width="17" stroke-miterlimit="10" d="M780.881,845.515
	c0,27.205,22.013,49.22,49.218,49.22"/>
<path fill="none" stroke="#355BA9" stroke-width="17" stroke-miterlimit="10" d="M730.152,893.948
	c27.194,0.846,49.881-20.478,50.729-47.669"/>
<path fill="none" stroke="#355BA9" stroke-width="17" stroke-miterlimit="10" d="M829.099,894.948
	c27.195,0.844,49.884-20.479,50.728-47.67"/>
<line fill="none" stroke="#355BA9" stroke-width="17" stroke-miterlimit="10" x1="879.826" y1="847.771" x2="879.826" y2="799.795"/>
<line fill="none" stroke="#355BA9" stroke-width="17" stroke-miterlimit="10" x1="780.881" y1="846.279" x2="780.881" y2="798.795"/>
<path fill="none" stroke="#355BA9" stroke-width="17" stroke-miterlimit="10" d="M684.807,845.024
	c0,27.205,22.013,49.22,49.218,49.22"/>
<path fill="none" stroke="#F8BE16" stroke-width="17" stroke-miterlimit="10" d="M880.444,671.19
	c0,27.206,22.014,49.221,49.221,49.221"/>
<path fill="none" stroke="#F8BE16" stroke-width="17" stroke-miterlimit="10" d="M929.665,720.115
	c27.194,0.846,49.88-20.477,50.726-47.67"/>
<line fill="none" stroke="#F8BE16" stroke-width="17" stroke-miterlimit="10" x1="980.391" y1="672.411" x2="980.391" y2="620.32"/>
<path fill="none" stroke="#F8BE16" stroke-width="17" stroke-miterlimit="10" d="M980.391,674.876
	c0,27.206,22.018,49.222,49.223,49.222"/>
<path fill="none" stroke="#355BA9" stroke-width="17" stroke-miterlimit="10" d="M1029.613,724.725
	c27.191,0.846,49.881-20.476,50.726-47.668"/>
<line fill="none" stroke="#355BA9" stroke-width="17" stroke-miterlimit="10" x1="1080.339" y1="677.219" x2="1080.339" y2="629.244"/>
<line fill="none" stroke="#355BA9" stroke-width="17" stroke-miterlimit="10" x1="1080.339" y1="634.481" x2="1080.339" y2="586.505"/>
<path fill="none" stroke="#355BA9" stroke-width="17" stroke-miterlimit="10" d="M1080.339,678.997
	c0,27.205,22.015,49.22,49.223,49.22"/>
<path fill="none" stroke="#355BA9" stroke-width="17" stroke-miterlimit="10" d="M1127.212,728.012
	c27.192,0.845,49.881-20.475,50.726-47.668"/>
<path fill="none" stroke="#F8BE16" stroke-width="17" stroke-miterlimit="10" d="M1228.577,634.503
	c-27.192-0.844-49.883,20.478-50.728,47.671"/>
<path fill="none" stroke="#F8BE16" stroke-width="17" stroke-miterlimit="10" d="M1251.877,658.913
	c0.414-13.295-10.008-24.385-23.3-24.798"/>
<path fill="none" stroke="#F8BE16" stroke-width="17" stroke-miterlimit="10" d="M1201.621,728.012
	c27.192,0.845,49.881-20.476,50.729-47.668"/>
<path fill="none" stroke="#F8BE16" stroke-width="17" stroke-miterlimit="10" d="M1178.389,703.606
	c-0.41,13.293,10.01,24.383,23.304,24.796"/>
<line fill="none" stroke="#355BA9" stroke-width="17" stroke-miterlimit="10" x1="1080.339" y1="620.32" x2="1106.018" y2="620.32"/>
<line fill="none" stroke="#F8BE16" stroke-width="17" stroke-miterlimit="10" x1="684.807" y1="672.549" x2="684.807" y2="720.033"/>
<line fill="none" stroke="#355BA9" stroke-width="17" stroke-miterlimit="10" x1="879.826" y1="799.795" x2="879.826" y2="621.32"/>
<line fill="none" stroke="#355BA9" stroke-width="17" stroke-miterlimit="10" x1="780.881" y1="798.795" x2="780.881" y2="750.82"/>
<line fill="none" stroke="#355BA9" stroke-width="17" stroke-miterlimit="10" x1="684.807" y1="845.998" x2="684.807" y2="798.022"/>
<line fill="none" stroke="#355BA9" stroke-width="17" stroke-miterlimit="10" x1="684.807" y1="798.795" x2="684.807" y2="720.031"/>
<line fill="none" stroke="#355BA9" stroke-width="17" stroke-miterlimit="10" x1="780.881" y1="750.82" x2="780.881" y2="620.32"/>
<line stroke="#000000" stroke-width="17" stroke-miterlimit="10" x1="1038.381" y1="887.976" x2="972.231" y2="773.404"/>
<line stroke="#000000" stroke-width="17" stroke-miterlimit="10" x1="908.861" y1="886.976" x2="973.621" y2="774.81"/>
<line stroke="#000000" stroke-width="17" stroke-miterlimit="10" x1="941.966" y1="830.894" x2="1004.78" y2="830.894"/>
<line stroke="#000000" stroke-width="17" stroke-miterlimit="10" x1="1080.111" y1="886.976" x2="1015.353" y2="774.809"/>
<line stroke="#000000" stroke-width="17" stroke-miterlimit="10" x1="1080.111" y1="888.066" x2="1144.873" y2="775.901"/>
<line stroke="#000000" stroke-width="17" stroke-miterlimit="10" x1="1168.232" y1="774.81" x2="1167.726" y2="886.976"/>
<line stroke="#000000" stroke-width="17" stroke-miterlimit="10" x1="1167.004" y1="830.892" x2="1233.896" y2="830.892"/>
<line stroke="#000000" stroke-width="17" stroke-miterlimit="10" x1="1159.24" y1="886.976" x2="1233.896" y2="886.976"/>
<line stroke="#000000" stroke-width="17" stroke-miterlimit="10" x1="1160.24" y1="775.901" x2="1235.323" y2="775.901"/>
<line fill="none" stroke="#CB242A" stroke-width="17" stroke-miterlimit="10" x1="904.729" y1="750.771" x2="1255.493" y2="750.771"/>
<line fill="none" stroke="#CB242A" stroke-width="17" stroke-miterlimit="10" x1="431.369" y1="750.771" x2="665.809" y2="750.771"/>
<g>
	<path stroke="#000000" stroke-width="5" stroke-miterlimit="10" d="M493.835,891.527v-59.142h7.125l27.567,46.434v-46.434h6.659
		v59.142h-7.125l-27.568-46.475v46.475H493.835z"/>
	<path stroke="#000000" stroke-width="5" stroke-miterlimit="10" d="M547.001,891.527v-59.142h37.95v6.979h-31.004v18.113h29.036
		v6.938h-29.036v20.131h32.222v6.979H547.001z"/>
	<path stroke="#000000" stroke-width="5" stroke-miterlimit="10" d="M604.93,891.527l-13.928-59.142h7.125l7.984,38.769
		c0.859,4.062,1.599,8.096,2.22,12.103c1.336-6.319,2.124-9.964,2.363-10.933l9.988-39.938h8.378l7.519,29.934
		c1.885,7.423,3.246,14.402,4.081,20.938c0.668-3.737,1.54-8.027,2.614-12.869l8.234-38.002h6.981l-14.393,59.142h-6.695
		l-11.063-45.063c-0.931-3.765-1.48-6.077-1.647-6.938c-0.549,2.717-1.062,5.029-1.539,6.938l-11.135,45.063H604.93z"/>
</g>
<g>
	<path d="M496.42,816.003v-26.164h-8.292v-5.327h22.209v5.327h-8.274v26.164H496.42z"/>
	<path d="M513.997,816.003v-31.491h5.643v12.395h11.057v-12.395h5.643v31.491h-5.643v-13.77H519.64v13.77H513.997z"/>
	<path d="M542.173,816.003v-31.491h20.723v5.327h-15.08v6.981h14.031v5.306h-14.031v8.571h15.613v5.306H542.173z"/>
</g>
<g>
	<path fill="#D02027" stroke="#CB242A" stroke-width="7" stroke-miterlimit="10" d="M132.769,667.392
		c13.96-3.687,25.957-5.407,36.427-5.407c40.789,0,58.894,25.563,58.894,52.599c0,26.545-16.141,50.878-49.95,50.878h-35.555v72.754
		h-9.815V667.392z M142.584,755.139h35.555c25.302,0,40.135-17.205,40.135-40.556c0-22.612-14.614-42.275-49.296-42.275
		c-7.634,0-16.577,0.983-26.393,3.441V755.139z"/>
	<path fill="#D02027" stroke="#CB242A" stroke-width="7" stroke-miterlimit="10" d="M248.589,667.392
		c13.96-3.687,27.702-5.407,38.172-5.407c37.517,0,54.531,25.316,54.531,50.633c0,19.171-9.379,38.097-29.229,45.225
		c4.145,3.688,7.417,9.095,10.252,16.468l23.775,63.905h-10.251l-22.685-60.71c-5.235-13.764-10.252-16.714-22.249-16.714h-32.5
		v77.424h-9.815V667.392z M258.404,750.469h33.591c28.574,0,39.48-19.663,39.48-37.852c0-19.909-13.523-40.31-44.934-40.31
		c-7.634,0-18.322,0.983-28.138,3.441V750.469z"/>
	<path fill="#D02027" stroke="#CB242A" stroke-width="7" stroke-miterlimit="10" d="M367.245,838.215v-174.51h85.287v10.323H377.06
		v71.524h66.092v10.323H377.06v72.016h78.525v10.323H367.245z"/>
</g>
<rect x="697.206" y="728.402" fill="#1C75BC" width="68.995" height="118.369"/>
<rect x="795.601" y="658.913" fill="#1C75BC" width="68.998" height="187.858"/>
<circle fill="#1C75BC" cx="731.704" cy="847.052" r="34.498"/>
<path fill="#1C75BC" d="M864.599,845.022c0,19.054-15.446,34.501-34.502,34.501c-19.052,0-34.496-15.447-34.496-34.501
	c0-19.052,15.444-34.498,34.496-34.498C849.152,810.524,864.599,825.97,864.599,845.022z"/>
<g>
	<circle fill="#1C75BC" stroke="#FFFFFF" stroke-width="4" stroke-miterlimit="10" cx="841.029" cy="708.176" r="17.401"/>
	<circle fill="#1C75BC" stroke="#FFFFFF" stroke-width="4" stroke-miterlimit="10" cx="817.89" cy="754.825" r="10.068"/>
	<circle fill="#1C75BC" stroke="#FFFFFF" stroke-width="4" stroke-miterlimit="10" cx="831.237" cy="771.744" r="5.223"/>
	<circle fill="#1C75BC" stroke="#FFFFFF" stroke-width="4" stroke-miterlimit="10" cx="828.979" cy="816.809" r="11.668"/>
	<circle fill="#1C75BC" stroke="#FFFFFF" stroke-width="4" stroke-miterlimit="10" cx="724.043" cy="797.655" r="16.811"/>
	<circle fill="#1C75BC" stroke="#FFFFFF" stroke-width="4" stroke-miterlimit="10" cx="743.296" cy="829.669" r="10.07"/>
	<path fill="#1C75BC" stroke="#FFFFFF" stroke-width="4" stroke-miterlimit="10" d="M850.814,846.471c0,4.21-3.413,7.621-7.62,7.621
		c-4.208,0-7.62-3.411-7.62-7.621c0-4.205,3.412-7.618,7.62-7.618C847.401,838.853,850.814,842.266,850.814,846.471z"/>
	<circle fill="#1C75BC" stroke="#FFFFFF" stroke-width="4" stroke-miterlimit="10" cx="807.82" cy="680.527" r="7.62"/>
</g>
<path fill="none" stroke="#CB242A" stroke-width="17" stroke-miterlimit="10" d="M1254.493,750.771
	c13.365-0.003,24.181,10.807,24.185,24.169"/>
<path fill="none" stroke="#CB242A" stroke-width="17" stroke-miterlimit="10" d="M1340.528,836.297
	c-34.177,0.009-61.841-27.637-61.851-61.814"/>
<path fill="none" stroke="#CB242A" stroke-width="17" stroke-miterlimit="10" d="M1401.726,774.465
	c0.007,34.179-27.639,61.841-61.816,61.85"/>
<path fill="none" stroke="#CB242A" stroke-width="17" stroke-miterlimit="10" d="M1401.724,729.446
	c-0.011-34.177,27.637-61.84,61.812-61.849"/>
<path fill="none" stroke="#CB242A" stroke-width="17" stroke-miterlimit="10" d="M1462.535,667.616
	c34.177-0.012,61.842,27.638,61.85,61.813"/>
<line fill="none" stroke="#CB242A" stroke-width="17" stroke-miterlimit="10" x1="1548.202" y1="753.07" x2="1594.325" y2="753.07"/>
<path fill="none" stroke="#CB242A" stroke-width="17" stroke-miterlimit="10" d="M1548.57,753.07
	c-13.364,0.002-24.181-10.807-24.186-24.171"/>
<line fill="none" stroke="#CB242A" stroke-width="17" stroke-miterlimit="10" x1="1401.724" y1="728.446" x2="1401.724" y2="775.465"/>
<circle fill="none" stroke="#F8BE16" stroke-width="17" stroke-miterlimit="10" cx="980.844" cy="595.297" r="11.701"/>
<line fill="none" stroke="#CB242A" stroke-width="17" stroke-miterlimit="10" x1="38.96" y1="762.43" x2="133.368" y2="762.43"/>
<rect x="595.574" y="894.465" fill="#FFFFFF" width="56" height="11.229"/>
<rect x="603.196" y="818.168" fill="#FFFFFF" width="56" height="11.229"/>
<rect x="1072.798" y="876.041" width="15.381" height="15.486"/>
<rect x="965.683" y="769.573" width="15.381" height="15.486"/>
<line fill="none" stroke="#F8BE16" stroke-width="17" stroke-miterlimit="10" x1="1171.24" y1="680.527" x2="1261.24" y2="679.272"/>
<rect x="448.073" y="991.267" fill="#CE1A21" width="89.672" height="177.875"/>
<rect x="501.607" y="946.229" fill="#E51E25" width="561.885" height="177.875"/>
<polygon fill="#A20F13" points="496.909,1124.104 537.745,1169.142 537.745,1124.104 "/>
<polygon fill="#A20F13" points="1068.422,1124.104 1027.586,1169.142 1027.586,1124.104 "/>
<g>
	<path fill="#FBDBE9" d="M699.049,1016.955c0-4.212-1.186-7.11-3.556-8.69c-2.37-1.579-5.031-2.369-7.979-2.369
		c-1.687,0-3.503,0.157-5.451,0.474c-1.95,0.316-3.898,0.79-5.846,1.422c-1.95,0.632-3.819,1.397-5.609,2.291
		c-1.792,0.896-3.372,1.975-4.74,3.239v-11.482c2.212-2.286,5.188-4.209,8.928-5.77c3.737-1.561,7.979-2.34,12.719-2.34
		c3.792,0,7.24,0.55,10.349,1.651c3.105,1.101,5.768,2.622,7.979,4.563s3.923,4.298,5.135,7.077c1.21,2.78,1.816,5.795,1.816,9.043
		c0,3.985-0.737,7.577-2.212,10.776c-1.476,3.199-3.372,6.162-5.688,8.888c-2.318,2.726-4.873,5.243-7.663,7.55
		c-2.792,2.306-5.505,4.56-8.137,6.762c-2.635,2.202-5.005,4.431-7.11,6.686c-2.108,2.256-3.582,4.692-4.424,7.314h38.394v12.166
		h-53.246v-9.796c0-3.16,0.895-6.187,2.687-9.085c1.79-2.896,4.029-5.688,6.715-8.374c2.687-2.687,5.609-5.317,8.77-7.9
		c3.159-2.579,6.082-5.159,8.769-7.742c2.686-2.579,4.923-5.214,6.715-7.899C698.152,1022.721,699.049,1019.905,699.049,1016.955z"
		/>
	<path fill="#FFFFFF" d="M783.104,1035.677c0,6.624-0.842,12.539-2.523,17.743c-1.681,5.204-3.991,9.594-6.935,13.168
		c-2.942,3.575-6.408,6.308-10.4,8.199c-3.994,1.891-8.3,2.839-12.922,2.839c-8.932,0-16.131-3.469-21.594-10.408
		c-5.464-6.938-8.194-16.874-8.194-29.805c0-6.834,0.761-12.959,2.284-18.373s3.651-9.988,6.384-13.721
		c2.73-3.733,6.014-6.597,9.851-8.594c3.834-1.998,8.063-2.997,12.687-2.997c4.412,0,8.535,0.921,12.371,2.76
		c3.837,1.842,7.172,4.522,10.009,8.043c2.836,3.523,5.043,7.912,6.618,13.168C782.313,1022.958,783.104,1028.951,783.104,1035.677z
		 M769.357,1036.388c0-5.581-0.528-10.294-1.58-14.141c-1.054-3.844-2.424-6.977-4.107-9.401c-1.687-2.422-3.609-4.187-5.768-5.293
		c-2.16-1.105-4.399-1.658-6.715-1.658c-2.108,0-4.187,0.553-6.241,1.658c-2.054,1.106-3.871,2.871-5.451,5.293
		c-1.579,2.425-2.844,5.609-3.792,9.56c-0.947,3.95-1.422,8.769-1.422,14.457c0,5.372,0.475,9.902,1.422,13.588
		c0.948,3.688,2.213,6.663,3.792,8.927c1.58,2.267,3.37,3.898,5.372,4.898c2,1.002,4.108,1.501,6.32,1.501s4.424-0.526,6.636-1.58
		c2.212-1.052,4.16-2.738,5.847-5.057c1.684-2.315,3.054-5.345,4.107-9.085C768.829,1046.318,769.357,1041.76,769.357,1036.388z"/>
	<path fill="#FFFFFF" d="M821.339,995.308v80.896h-13.745v-62.568c-1.793,1.161-4.294,2.397-7.506,3.713
		c-3.214,1.318-6.505,2.346-9.875,3.081v-11.85c2.528-0.948,4.898-2.157,7.11-3.634c2.212-1.474,4.212-2.948,6.004-4.424
		c1.896-1.684,3.738-3.422,5.53-5.215H821.339z"/>
	<path fill="#FBDBE9" d="M830.66,1041.04c0-7.988,0.842-14.929,2.528-20.816c1.684-5.886,4.029-10.801,7.031-14.743
		s6.581-6.888,10.744-8.833c4.159-1.945,8.715-2.918,13.667-2.918c1.264,0,2.632,0.052,4.107,0.155
		c1.475,0.104,2.948,0.262,4.424,0.469c1.475,0.208,2.896,0.442,4.267,0.701c1.367,0.262,2.528,0.6,3.476,1.015v12.038
		c-1.58-0.316-3.266-0.685-5.056-1.106c-1.477-0.315-3.188-0.577-5.135-0.79c-1.95-0.21-3.978-0.315-6.083-0.315
		c-6.004,0.105-10.641,2.231-13.904,6.374c-3.267,4.145-5.162,9.626-5.688,16.444c2-2.027,4.397-3.388,7.189-4.081
		c2.79-0.693,5.451-1.042,7.979-1.042c3.264,0,6.423,0.662,9.479,1.982c3.054,1.321,5.74,3.17,8.058,5.545
		c2.316,2.378,4.188,5.204,5.609,8.478c1.422,3.276,2.133,6.816,2.133,10.618c0,4.015-0.711,7.686-2.133,11.014
		c-1.422,3.327-3.345,6.206-5.767,8.636c-2.425,2.429-5.32,4.332-8.69,5.705c-3.372,1.37-6.952,2.059-10.744,2.059
		c-3.897,0-7.505-0.814-10.823-2.444c-3.317-1.629-6.216-3.994-8.689-7.095c-2.477-3.101-4.424-6.912-5.846-11.436
		C831.371,1052.131,830.66,1046.927,830.66,1041.04z M845.196,1049.502c0,2.95,0.396,5.451,1.186,7.505
		c0.79,2.055,1.79,3.74,3.002,5.057c1.209,1.318,2.58,2.266,4.107,2.844c1.526,0.58,3.081,0.869,4.661,0.869s3.16-0.341,4.74-1.027
		c1.58-0.684,3.026-1.684,4.345-3.002c1.316-1.315,2.395-2.947,3.239-4.898c0.842-1.947,1.264-4.132,1.264-6.557
		c0-2.737-0.395-5.056-1.185-6.952c-0.79-1.896-1.817-3.396-3.081-4.503c-1.264-1.105-2.713-1.896-4.345-2.37
		c-1.635-0.474-3.294-0.711-4.978-0.711c-2.318,0-4.293,0.475-5.925,1.422c-1.635,0.948-2.978,2.108-4.029,3.477
		c-1.054,1.37-1.816,2.844-2.291,4.424C845.434,1046.659,845.196,1048.135,845.196,1049.502z"/>
</g>
<g>
	<path stroke="#000000" stroke-width="0.25" stroke-miterlimit="10" d="M1203.926,1437.383l23.895,16.398l-2.309,3.365
		l-29.814-0.668l20.58,14.123l-1.732,2.523l-23.895-16.398l2.309-3.364l30.063,0.837l-20.828-14.293L1203.926,1437.383z"/>
	<path stroke="#000000" stroke-width="0.25" stroke-miterlimit="10" d="M1239.535,1436.715l-1.596,2.326l-1.946-1.396
		c0.208,0.825,0.291,1.868,0.248,3.128c-0.044,1.262-0.497,2.521-1.359,3.777c-1.204,1.756-2.603,2.926-4.193,3.514
		c-1.592,0.588-3.223,0.26-4.892-0.983c-1.066-0.779-1.771-1.626-2.113-2.541s-0.482-1.823-0.421-2.728
		c0.063-0.902,0.276-1.762,0.642-2.578c0.367-0.816,0.765-1.537,1.194-2.164c0.589-0.857,1.051-1.619,1.388-2.287
		c0.336-0.666,0.579-1.215,0.729-1.646c0.162-0.519,0.267-0.955,0.317-1.311c-1.881-1.289-3.543-1.799-4.989-1.531
		c-1.446,0.27-2.69,1.162-3.731,2.68c-0.701,1.021-1.124,1.994-1.27,2.912c-0.146,0.919-0.184,1.718-0.115,2.395
		c0.122,0.813,0.361,1.559,0.718,2.239l-2.507-0.483c-0.333-0.715-0.518-1.498-0.554-2.352c-0.034-0.706,0.067-1.56,0.308-2.563
		s0.781-2.118,1.622-3.345c0.567-0.826,1.249-1.588,2.042-2.287c0.793-0.696,1.674-1.223,2.645-1.58
		c0.971-0.355,2.023-0.461,3.156-0.316c1.135,0.145,2.311,0.635,3.527,1.469L1239.535,1436.715z M1233.29,1443.055
		c0.362-0.527,0.636-1.104,0.822-1.729c0.186-0.623,0.294-1.24,0.325-1.852c0.029-0.609,0.001-1.186-0.086-1.731
		c-0.087-0.544-0.193-1.007-0.322-1.386l-4.573-3.198c-0.187,0.554-0.372,1.108-0.559,1.663c-0.197,0.5-0.425,1.025-0.683,1.578
		c-0.26,0.555-0.561,1.08-0.9,1.576c-0.387,0.563-0.701,1.164-0.944,1.801c-0.243,0.638-0.387,1.271-0.431,1.898
		c-0.042,0.629,0.043,1.211,0.257,1.747c0.214,0.538,0.601,0.998,1.161,1.383c1.221,0.838,2.334,1.019,3.339,0.544
		S1232.565,1444.112,1233.29,1443.055z"/>
	<path stroke="#000000" stroke-width="0.25" stroke-miterlimit="10" d="M1221.811,1419.168l-2.227-1.527l1.563-2.275l2.227,1.527
		L1221.811,1419.168z M1242.045,1433.055l-17.414-11.951l1.563-2.275l17.414,11.95L1242.045,1433.055z"/>
	<path stroke="#000000" stroke-width="0.25" stroke-miterlimit="10" d="M1238.293,1406.393c-0.41,0.154-0.86,0.404-1.35,0.748
		c-0.443,0.277-0.928,0.672-1.456,1.183s-1.076,1.18-1.642,2.003c-0.589,0.859-0.844,1.835-0.77,2.929
		c0.076,1.097,0.545,1.938,1.404,2.527c0.729,0.499,1.436,0.658,2.121,0.474s1.374-0.548,2.064-1.094
		c0.691-0.545,1.4-1.137,2.131-1.775s1.523-1.175,2.379-1.605c0.855-0.432,1.775-0.638,2.76-0.617
		c0.984,0.021,2.07,0.438,3.262,1.256c0.629,0.432,1.178,0.979,1.648,1.641c0.469,0.662,0.771,1.428,0.906,2.295
		c0.133,0.869,0.055,1.834-0.236,2.896c-0.291,1.061-0.866,2.219-1.727,3.472c-0.521,0.759-1.027,1.394-1.523,1.901
		c-0.494,0.51-0.961,0.905-1.396,1.188c-0.449,0.373-0.913,0.659-1.395,0.863l-1.78-1.222c0.471-0.212,0.954-0.51,1.452-0.896
		c0.451-0.32,0.923-0.737,1.413-1.249c0.491-0.512,0.995-1.146,1.517-1.906c0.928-1.352,1.379-2.607,1.352-3.766
		c-0.027-1.16-0.632-2.145-1.816-2.958c-0.887-0.608-1.723-0.854-2.506-0.736c-0.781,0.118-1.559,0.421-2.329,0.911
		c-0.772,0.49-1.522,1.055-2.251,1.695c-0.729,0.639-1.495,1.191-2.3,1.659c-0.806,0.466-1.631,0.735-2.479,0.809
		s-1.782-0.239-2.802-0.938c-0.625-0.43-1.12-1.012-1.485-1.748c-0.366-0.736-0.575-1.523-0.629-2.361
		c-0.054-0.837,0.019-1.684,0.22-2.54s0.539-1.632,1.014-2.325c0.565-0.823,1.111-1.493,1.634-2.008
		c0.522-0.514,1.003-0.912,1.438-1.195c0.482-0.348,0.924-0.604,1.325-0.765L1238.293,1406.393z"/>
	<path stroke="#000000" stroke-width="0.25" stroke-miterlimit="10" d="M1261.832,1404.646c-1.697,2.474-3.81,3.96-6.334,4.458
		c-2.525,0.5-5.189-0.215-7.992-2.139c-3.002-2.059-4.76-4.393-5.273-7.002c-0.516-2.608,0.145-5.248,1.979-7.92
		c1.697-2.474,3.827-3.934,6.391-4.383c2.564-0.447,5.248,0.291,8.051,2.214c3.001,2.06,4.74,4.368,5.216,6.927
		S1263.666,1401.975,1261.832,1404.646z M1260.051,1403.423c1.291-1.88,1.723-3.813,1.299-5.804
		c-0.424-1.988-1.852-3.816-4.283-5.486c-2.234-1.533-4.34-2.166-6.314-1.896c-1.975,0.271-3.561,1.28-4.76,3.028
		c-1.29,1.879-1.721,3.829-1.292,5.845s1.876,3.87,4.341,5.562c2.269,1.557,4.37,2.176,6.307,1.854
		C1257.283,1406.207,1258.852,1405.171,1260.051,1403.423z"/>
	<path stroke="#000000" stroke-width="0.25" stroke-miterlimit="10" d="M1274.869,1385.65c-1.697,2.474-3.811,3.96-6.335,4.458
		c-2.525,0.5-5.188-0.215-7.993-2.139c-3-2.059-4.759-4.394-5.273-7.002c-0.514-2.608,0.146-5.248,1.979-7.92
		c1.697-2.474,3.827-3.934,6.392-4.383c2.563-0.447,5.247,0.291,8.05,2.214c3.001,2.06,4.741,4.368,5.216,6.927
		C1277.381,1380.364,1276.702,1382.979,1274.869,1385.65z M1273.088,1384.427c1.29-1.88,1.723-3.813,1.299-5.804
		c-0.424-1.988-1.852-3.816-4.284-5.486c-2.234-1.533-4.339-2.166-6.313-1.896c-1.975,0.272-3.561,1.281-4.761,3.029
		c-1.29,1.879-1.721,3.829-1.292,5.845s1.877,3.87,4.341,5.562c2.269,1.557,4.37,2.175,6.306,1.854
		C1270.32,1387.21,1271.888,1386.175,1273.088,1384.427z"/>
	<path stroke="#000000" stroke-width="0.25" stroke-miterlimit="10" d="M1272.568,1352.417l1.732-2.522l2.453,8.089l15.061,2.549
		l-1.459,2.127l-12.836-2.186l2.681,8.605l3.908,2.683l-1.562,2.276l-25.33-17.383l1.563-2.275l18.205,12.493L1272.568,1352.417z"/>
	<path stroke="#000000" stroke-width="0.25" stroke-miterlimit="10" d="M1293.832,1319.419c-1.616-1.109-3.048-1.497-4.294-1.167
		c-1.246,0.332-2.32,1.156-3.224,2.473c-0.723,1.053-1.32,2.24-1.791,3.564c-0.473,1.322-0.564,2.59-0.281,3.802l-2.078-1.427
		c-0.25-1.188-0.174-2.396,0.229-3.621s1.035-2.461,1.894-3.713c1.356-1.977,3.006-3.266,4.949-3.871
		c1.941-0.604,3.951-0.193,6.029,1.233c1.188,0.815,2.102,1.853,2.74,3.112c0.641,1.26,1.139,2.617,1.499,4.07
		c0.36,1.457,0.628,2.957,0.805,4.502c0.177,1.546,0.375,3.023,0.597,4.432c0.224,1.408,0.525,2.666,0.905,3.771
		c0.38,1.107,0.954,1.949,1.724,2.524l8.522-12.418l2.028,1.392l-10.253,14.941l-2.028-1.393c-0.957-0.656-1.68-1.563-2.169-2.725
		c-0.489-1.16-0.866-2.45-1.13-3.867c-0.264-1.419-0.469-2.905-0.614-4.461c-0.145-1.555-0.356-3.047-0.638-4.477
		c-0.28-1.431-0.674-2.73-1.18-3.902S1294.82,1320.098,1293.832,1319.419z"/>
	<path stroke="#000000" stroke-width="0.25" stroke-miterlimit="10" d="M1317.382,1308.219c2.474,1.698,3.811,3.744,4.011,6.137
		c0.201,2.395-0.547,4.828-2.244,7.301c-0.793,1.155-1.512,2.02-2.155,2.597c-0.645,0.577-1.267,1.048-1.864,1.413l-2.105-1.445
		c0.445-0.228,0.894-0.525,1.342-0.897c0.404-0.306,0.84-0.708,1.307-1.214c0.467-0.504,0.949-1.119,1.447-1.845
		c1.336-1.946,1.863-3.717,1.586-5.315c-0.28-1.598-1.24-2.963-2.882-4.089c-1.773-1.217-3.523-1.604-5.25-1.164
		c-1.728,0.44-3.179,1.519-4.355,3.233c-0.521,0.758-0.954,1.442-1.301,2.054c-0.347,0.61-0.612,1.12-0.794,1.528
		c-0.229,0.475-0.412,0.883-0.549,1.225l-11.874-8.148l7.706-11.229l2.029,1.392l-5.976,8.707l7.618,5.229l1.291-1.88
		c0.973-1.418,2.008-2.539,3.107-3.362c1.099-0.822,2.212-1.367,3.342-1.636c1.129-0.267,2.251-0.274,3.362-0.021
		C1315.292,1307.041,1316.359,1307.518,1317.382,1308.219z"/>
	<path stroke="#000000" stroke-width="0.25" stroke-miterlimit="10" d="M1326.408,1310.123l-2.621-1.8l1.732-2.523l2.621,1.8
		L1326.408,1310.123z"/>
	<path stroke="#000000" stroke-width="0.25" stroke-miterlimit="10" d="M1312.518,1291.129c-0.891-0.611-1.59-1.322-2.1-2.135
		s-0.838-1.695-0.984-2.648c-0.147-0.953-0.102-1.92,0.135-2.902c0.238-0.98,0.687-1.951,1.346-2.912
		c0.613-0.893,1.348-1.631,2.207-2.209c0.859-0.58,1.765-0.98,2.717-1.203c0.953-0.224,1.916-0.246,2.885-0.066
		c0.969,0.178,1.867,0.549,2.69,1.115c1.155,0.792,2.011,1.823,2.571,3.093c0.561,1.271,0.707,2.627,0.445,4.07
		c1.678-1.03,3.376-1.491,5.094-1.379c1.719,0.112,3.254,0.632,4.606,1.56c1.122,0.77,1.964,1.627,2.528,2.572
		s0.895,1.947,0.99,3.009c0.098,1.062-0.025,2.142-0.367,3.24c-0.344,1.1-0.875,2.177-1.6,3.231
		c-1.563,2.276-3.353,3.703-5.375,4.28c-2.021,0.577-4.153,0.097-6.396-1.442c-1.418-0.973-2.468-2.238-3.146-3.795
		c-0.678-1.558-0.849-3.287-0.512-5.191c-1.197,0.684-2.497,1.006-3.899,0.963
		C1314.951,1292.338,1313.672,1291.922,1312.518,1291.129z M1314.547,1288.81c1.056,0.725,2.217,1.049,3.482,0.97
		c1.266-0.076,2.351-0.774,3.256-2.094c0.793-1.154,1.035-2.393,0.732-3.719c-0.303-1.322-0.983-2.348-2.039-3.072
		c-1.352-0.928-2.686-1.248-3.998-0.961s-2.331,0.959-3.055,2.014c-0.861,1.254-1.145,2.479-0.85,3.676
		C1312.371,1286.821,1313.195,1287.882,1314.547,1288.81z M1323.412,1289.145c-1.019,1.485-1.357,2.998-1.016,4.543
		c0.341,1.544,1.25,2.822,2.725,3.836c1.479,1.014,2.98,1.461,4.508,1.346c1.529-0.115,2.87-1.015,4.024-2.697
		c1.108-1.614,1.459-3.182,1.052-4.698c-0.408-1.517-1.35-2.782-2.827-3.796c-0.622-0.428-1.312-0.742-2.066-0.945
		c-0.755-0.201-1.511-0.26-2.27-0.175c-0.759,0.087-1.495,0.332-2.21,0.739C1324.617,1287.706,1323.979,1288.323,1323.412,1289.145z
		"/>
</g>
<g>
</g>
<g>
</g>
<g>
</g>
<g>
</g>
<g>
</g>
<g>
</g>
</svg>
